<svg xmlns="http://www.w3.org/2000/svg" xmlns:ev="http://www.w3.org/2001/xml-events" xmlns:xlink="http://www.w3.org/1999/xlink" style="enable-background:new 0 0 318.6 318.6" id="Layer_1" x="0" y="0" version="1.1" viewBox="0 0 318.6 318.6" xml:space="preserve"><style type="text/css">.st0{fill:#161616;stroke:#161616}.st1{fill:#e4761b;stroke:#e4761b}.st1,.st10{stroke-linecap:round;stroke-linejoin:round}.st2{fill:#763d16;stroke:#763d16}.st2,.st3,.st4,.st5,.st6,.st7,.st8,.st9{stroke-linecap:round;stroke-linejoin:round}.st3{fill:#f6851b;stroke:#f6851b}.st4{fill:#e2761b;stroke:#e2761b}.st5{fill:#cd6116;stroke:#cd6116}.st6{fill:#c0ad9e;stroke:#c0ad9e}.st7{fill:#d7c1b3;stroke:#d7c1b3}.st8{fill:#e4751f;stroke:#e4751f}.st9{fill:#233447;stroke:#233447}.st10{fill:#161616;stroke:#161616}</style><polygon points="277.3 145.6 272.3 142 280.3 134.7 274.2 129.9 282.2 123.8 276.9 119.8 285.3 79 272.7 41.1 191.6 71.4 124.1 71.4 43 41.1 30.4 79 38.9 119.8 33.5 123.8 41.5 129.9 35.4 134.7 43.4 142 38.4 145.6 49.9 159.1 32.5 213.3 48.6 268.6 105.3 253 116.3 262 138.7 277.5 177 277.5 199.4 262 210.4 253 267.1 268.6 283.3 213.3 265.8 159.1" class="st0"/><g><polygon points="105.3 253 48.6 268.6 32.5 213.3" class="st1"/><polygon points="283.3 213.3 267.1 268.6 210.4 253" class="st1"/><polygon points="265.8 159.1 213.5 143.8 231.8 139" class="st2"/><polygon points="49.9 159.1 84 139 102.2 143.8" class="st2"/><polygon points="43.4 142 41.5 129.9 84 139" class="st2"/><polygon points="272.3 142 231.8 139 274.2 129.9" class="st2"/><polygon points="272.3 142 265.8 159.1 231.8 139" class="st2"/><polygon points="43.4 142 84 139 49.9 159.1" class="st2"/><polygon points="231.8 139 276.9 119.8 274.2 129.9" class="st2"/><polygon points="84 139 41.5 129.9 38.9 119.8" class="st2"/><polygon points="124.1 71.4 191.6 71.4 176.5 112.5" class="st3"/><polygon points="176.5 112.5 139.2 112.5 124.1 71.4" class="st3"/><polygon points="276.9 119.8 231.8 139 231 87.4" class="st2"/><polygon points="102.2 143.8 84 139 84.7 87.4" class="st2"/><polygon points="84.7 87.4 84 139 38.9 119.8" class="st2"/><polygon points="231 87.4 231.8 139 213.5 143.8" class="st2"/><polygon points="139.2 112.5 43 41.1 124.1 71.4" class="st1"/><polygon points="272.7 41.1 176.5 112.5 191.6 71.4" class="st4"/><polygon points="210.4 253 236.9 213.3 283.3 213.3" class="st1"/><polygon points="32.5 213.3 78.9 213.3 105.3 253" class="st1"/><polygon points="229.3 167.7 283.3 213.3 236.9 213.3" class="st3"/><polygon points="86.4 167.7 32.5 213.3 49.9 159.1" class="st3"/><polygon points="78.9 213.3 32.5 213.3 86.4 167.7" class="st3"/><polygon points="229.3 167.7 265.8 159.1 283.3 213.3" class="st3"/><polygon points="84.7 87.4 139.2 112.5 102.2 143.8" class="st2"/><polygon points="213.5 143.8 176.5 112.5 231 87.4" class="st2"/><polygon points="265.8 159.1 272.3 142 277.3 145.6" class="st2"/><polygon points="49.9 159.1 38.4 145.6 43.4 142" class="st2"/><polygon points="272.3 142 274.2 129.9 280.3 134.7" class="st2"/><polygon points="43.4 142 35.4 134.7 41.5 129.9" class="st2"/><polygon points="33.5 123.8 38.9 119.8 41.5 129.9" class="st2"/><polygon points="282.2 123.8 274.2 129.9 276.9 119.8" class="st2"/><polygon points="49.9 159.1 102.2 143.8 86.4 167.7" class="st3"/><polygon points="265.8 159.1 229.3 167.7 213.5 143.8" class="st3"/><polygon points="38.9 119.8 30.4 79 84.7 87.4" class="st2"/><polygon points="231 87.4 285.3 79 276.9 119.8" class="st2"/><polygon points="102.2 143.8 139.2 112.5 142.6 170.2" class="st1"/><polygon points="213.5 143.8 229.3 167.7 173.1 170.2" class="st1"/><polygon points="173.1 170.2 176.5 112.5 213.5 143.8" class="st1"/><polygon points="142.6 170.2 86.4 167.7 102.2 143.8" class="st1"/><polygon points="272.7 41.1 285.3 79 231 87.4" class="st2"/><polygon points="43 41.1 139.2 112.5 84.7 87.4" class="st2"/><polygon points="231 87.4 176.5 112.5 272.7 41.1" class="st2"/><polygon points="84.7 87.4 30.4 79 43 41.1" class="st2"/><polygon points="105.3 253 78.9 213.3 110 213.7" class="st5"/><polygon points="210.4 253 205.7 213.7 236.9 213.3" class="st5"/><polygon points="173.1 170.2 142.6 170.2 139.2 112.5" class="st3"/><polygon points="139.2 112.5 176.5 112.5 173.1 170.2" class="st3"/><polygon points="116.3 262 105.3 253 136.8 267.9" class="st6"/><polygon points="178.9 267.9 210.4 253 199.4 262" class="st6"/><polygon points="136.6 258.6 136.8 267.9 105.3 253" class="st7"/><polygon points="179.2 258.6 210.4 253 178.9 267.9" class="st7"/><polygon points="86.4 167.7 110 213.7 78.9 213.3" class="st3"/><polygon points="236.9 213.3 205.7 213.7 229.3 167.7" class="st3"/><polygon points="86.4 167.7 109.2 190.8 110 213.7" class="st8"/><polygon points="229.3 167.7 205.7 213.7 206.6 190.8" class="st8"/><polygon points="105.3 253 139.2 236.5 136.6 258.6" class="st7"/><polygon points="210.4 253 179.2 258.6 176.5 236.5" class="st7"/><polygon points="139.2 236.5 105.3 253 110 213.7" class="st1"/><polygon points="176.5 236.5 205.7 213.7 210.4 253" class="st1"/><polygon points="173.1 170.2 229.3 167.7 206.6 190.8" class="st5"/><polygon points="109.2 190.8 86.4 167.7 142.6 170.2" class="st5"/><polygon points="142.6 170.2 129.1 181.7 109.2 190.8" class="st5"/><polygon points="206.6 190.8 186.6 181.7 173.1 170.2" class="st5"/><polygon points="205.7 213.7 178.3 199.1 206.6 190.8" class="st3"/><polygon points="110 213.7 109.2 190.8 137.4 199.1" class="st3"/><polygon points="137.4 199.1 109.2 190.8 129.1 181.7" class="st9"/><polygon points="178.3 199.1 186.6 181.7 206.6 190.8" class="st9"/><polygon points="186.6 181.7 178.3 199.1 173.1 170.2" class="st5"/><polygon points="129.1 181.7 142.6 170.2 137.4 199.1" class="st5"/><polygon points="199.4 262 177 277.5 178.9 267.9" class="st6"/><polygon points="136.8 267.9 138.7 277.5 116.3 262" class="st6"/><polygon points="178.3 199.1 171.8 188.4 173.1 170.2" class="st4"/><polygon points="137.4 199.1 142.6 170.2 143.9 188.4" class="st8"/><polygon points="173.1 170.2 171.8 188.4 143.9 188.4" class="st3"/><polygon points="143.9 188.4 142.6 170.2 173.1 170.2" class="st3"/><polygon points="178.3 199.1 205.7 213.7 176.5 236.5" class="st3"/><polygon points="139.2 236.5 110 213.7 137.4 199.1" class="st3"/><polygon points="137.4 199.1 144 233.2 139.2 236.5" class="st3"/><polygon points="176.5 236.5 171.7 233.2 178.3 199.1" class="st3"/><polygon points="171.8 188.4 178.3 199.1 171.7 233.2" class="st8"/><polygon points="143.9 188.4 144 233.2 137.4 199.1" class="st8"/><polygon points="143.9 188.4 171.8 188.4 171.7 233.2" class="st3"/><polygon points="171.7 233.2 144 233.2 143.9 188.4" class="st3"/><polygon points="179.2 258.6 178.9 267.9 177 277.5" class="st6"/><polygon points="138.7 277.5 136.8 267.9 136.6 258.6" class="st6"/><polygon points="136.6 258.6 139 256.4 138.7 277.5" class="st6"/><polygon points="177 277.5 176.7 256.4 179.2 258.6" class="st6"/><polygon points="138.7 277.5 139 256.4 176.7 256.4" class="st6"/><polygon points="176.7 256.4 177 277.5 138.7 277.5" class="st6"/><polygon points="176.5 236.5 179.2 258.6 176.7 256.4" class="st10"/><polygon points="139 256.4 136.6 258.6 139.2 236.5" class="st10"/><polygon points="139.2 236.5 140.7 241.2 139 256.4" class="st10"/><polygon points="176.7 256.4 175 241.2 176.5 236.5" class="st10"/><polygon points="143.7 237.7 140.7 241.2 139.2 236.5" class="st10"/><polygon points="176.5 236.5 175 241.2 172 237.7" class="st10"/><polygon points="172 237.7 171.7 233.2 176.5 236.5" class="st10"/><polygon points="139.2 236.5 144 233.2 143.7 237.7" class="st10"/><polygon points="171.7 233.2 172 237.7 143.7 237.7" class="st10"/><polygon points="143.7 237.7 144 233.2 171.7 233.2" class="st10"/><polygon points="140.7 241.2 175 241.2 176.7 256.4" class="st10"/><polygon points="176.7 256.4 139 256.4 140.7 241.2" class="st10"/><polygon points="140.7 241.2 143.7 237.7 172 237.7" class="st10"/><polygon points="172 237.7 175 241.2 140.7 241.2" class="st10"/></g></svg>